<svg width="439" height="892" viewBox="0 0 439 892" fill="none" xmlns="http://www.w3.org/2000/svg" xmlns:xlink="http://www.w3.org/1999/xlink">
<path fill-rule="evenodd" clip-rule="evenodd" d="M435.046 288.993C435.168 285.939 435.83 281 435.83 281H437.132C438.232 281 439.005 281.886 439 282.99V385.308C438.995 386.407 437.73 387.298 436.626 387.298L435.49 387.297C435.43 387.269 435.188 386.911 435.032 383.067L435 309.759C435.001 298.927 435.01 290.867 435.03 289.53L435.046 288.993Z" fill="url(#paint0_linear_8538_9007)"/>
<path fill-rule="evenodd" clip-rule="evenodd" d="M435.046 288.993C435.168 285.939 435.83 281 435.83 281H437.132C438.232 281 439.005 281.886 439 282.99V385.308C438.995 386.407 437.73 387.298 436.626 387.298L435.49 387.297C435.43 387.269 435.188 386.911 435.032 383.067L435 309.759C435.001 298.927 435.01 290.867 435.03 289.53L435.046 288.993Z" fill="url(#paint1_linear_8538_9007)"/>
<mask id="mask0_8538_9007" style="mask-type:luminance" maskUnits="userSpaceOnUse" x="435" y="281" width="4" height="107">
<path fill-rule="evenodd" clip-rule="evenodd" d="M435.046 288.993C435.168 285.939 435.83 281 435.83 281H437.132C438.232 281 439.005 281.886 439 282.99V385.308C439 386.5 437.73 387.298 436.626 387.298L435.49 387.297C435.43 387.269 435.188 386.911 435.032 383.067L435 309.759C435.001 298.927 435.01 290.867 435.03 289.53L435.046 288.993Z" fill="white"/>
</mask>
<g mask="url(#mask0_8538_9007)">
<path d="M440.469 279.94C440.631 279.94 440.767 279.973 440.862 280.008C440.91 280.025 440.949 280.044 440.977 280.058C440.99 280.065 441.002 280.07 441.011 280.075C441.015 280.078 441.019 280.08 441.021 280.082C441.023 280.083 441.024 280.083 441.025 280.084L441.026 280.085H441.027L441.028 280.086L441.145 280.159V283.77L440.967 283.761C440.959 283.775 440.947 283.792 440.936 283.816C440.883 283.927 440.824 284.105 440.762 284.352C440.638 284.841 440.515 285.554 440.405 286.423C440.186 288.16 440.025 290.498 440.025 292.884V376.907C440.025 378.934 439.947 380.557 440.081 381.951C440.214 383.331 440.553 384.45 441.368 385.455L441.479 385.592L441.388 385.743L440.032 387.972L439.865 388.245L439.641 388.017C439.52 387.894 439.341 387.715 439.149 387.38C438.959 387.048 438.761 386.572 438.58 385.853C438.265 384.596 437.999 382.579 437.938 379.255L437.924 377.749V288.91C437.924 286.317 438.094 284.47 438.354 283.156C438.612 281.846 438.963 281.048 439.338 280.573C439.721 280.088 440.131 279.94 440.469 279.94Z" fill="#4C5159" stroke="#F0FDFD" stroke-width="0.5"/>
</g>
<path fill-rule="evenodd" clip-rule="evenodd" d="M4.06282 352.993C3.93992 349.939 3.27851 345 3.27851 345H1.97662C0.876389 345 -0.00858516 345.889 6.28452e-05 346.997V410.453C0.00867179 411.556 1.3783 412.539 2.48192 412.539L3.61801 412.538C3.6784 412.51 3.92009 412.151 4.07658 408.308L4.10841 365.387C4.10694 359.276 4.0988 354.633 4.0787 353.518L4.06282 352.993Z" fill="url(#paint2_linear_8538_9007)"/>
<path fill-rule="evenodd" clip-rule="evenodd" d="M4.06282 352.993C3.93992 349.939 3.27851 345 3.27851 345H1.97662C0.876389 345 -0.00858516 345.889 6.28452e-05 346.997V410.453C0.00867179 411.556 1.3783 412.539 2.48192 412.539L3.61801 412.538C3.6784 412.51 3.92009 412.151 4.07658 408.308L4.10841 365.387C4.10694 359.276 4.0988 354.633 4.0787 353.518L4.06282 352.993Z" fill="url(#paint3_linear_8538_9007)"/>
<mask id="mask1_8538_9007" style="mask-type:luminance" maskUnits="userSpaceOnUse" x="0" y="345" width="5" height="68">
<path fill-rule="evenodd" clip-rule="evenodd" d="M4.06282 352.993C3.93992 349.939 3.27851 345 3.27851 345H1.97662C0.876389 345 -0.00858516 345.889 6.28452e-05 346.997V410.453C0.00867179 411.556 1.3783 412.539 2.48192 412.539L3.61801 412.538C3.6784 412.51 3.92009 412.151 4.07658 408.308L4.10841 365.387C4.10694 359.276 4.0988 354.633 4.0787 353.518L4.06282 352.993Z" fill="white"/>
</mask>
<g mask="url(#mask1_8538_9007)">
<path d="M0.934372 402.99C0.934342 411.449 -0.038409 412.695 -0.483597 413.24L-0.727737 413.539L-0.900589 413.194L-2.02364 410.966L-2.08907 410.836L-2.00801 410.714C-0.68636 408.746 -0.41777 406.35 -0.400589 402.573L-0.399612 356.928C-0.399622 354.549 -0.654736 352.203 -0.958206 350.456C-1.11 349.583 -1.27253 348.864 -1.42012 348.369C-1.49439 348.12 -1.56259 347.937 -1.61934 347.82C-1.63132 347.796 -1.64467 347.778 -1.65352 347.763L-1.81856 347.772V344.156L-1.69844 344.084L-1.64082 344.049L-1.63399 344.044L-1.62715 344.041C-1.50747 343.979 -1.25933 343.886 -0.955276 343.98C-0.650154 344.073 -0.346997 344.336 -0.0792999 344.857C0.44963 345.886 0.909719 348.056 0.933395 352.545V352.546L0.934372 402.99Z" fill="#2B3235" stroke="#CAE5E9" stroke-width="0.5"/>
</g>
<path fill-rule="evenodd" clip-rule="evenodd" d="M4.06282 267.993C3.93992 264.939 3.27851 260 3.27851 260H1.97662C0.876389 260 -0.00858516 260.889 6.28452e-05 261.997V325.515C0.00867179 326.618 1.3783 327.539 2.48192 327.539L3.61801 327.538C3.6784 327.51 3.92009 327.151 4.07658 323.308L4.10841 279.387C4.10694 273.276 4.0988 269.633 4.0787 268.518L4.06282 267.993Z" fill="url(#paint4_linear_8538_9007)"/>
<path fill-rule="evenodd" clip-rule="evenodd" d="M4.06282 267.993C3.93992 264.939 3.27851 260 3.27851 260H1.97662C0.876389 260 -0.00858516 260.889 6.28452e-05 261.997V325.515C0.00867179 326.618 1.3783 327.539 2.48192 327.539L3.61801 327.538C3.6784 327.51 3.92009 327.151 4.07658 323.308L4.10841 279.387C4.10694 273.276 4.0988 269.633 4.0787 268.518L4.06282 267.993Z" fill="url(#paint5_linear_8538_9007)"/>
<mask id="mask2_8538_9007" style="mask-type:luminance" maskUnits="userSpaceOnUse" x="0" y="260" width="5" height="68">
<path fill-rule="evenodd" clip-rule="evenodd" d="M4.06282 267.993C3.93992 264.939 3.27851 260 3.27851 260H1.97662C0.876389 260 -0.00858516 260.889 6.28452e-05 261.997V325.515C0.00867179 326.618 1.3783 327.539 2.48192 327.539L3.61801 327.538C3.6784 327.51 3.92009 327.151 4.07658 323.308L4.10841 279.387C4.10694 273.276 4.0988 269.633 4.0787 268.518L4.06282 267.993Z" fill="white"/>
</mask>
<g mask="url(#mask2_8538_9007)">
<path d="M1.03438 317.99C1.03435 326.449 0.0615971 327.695 -0.383591 328.24L-0.627731 328.539L-0.800583 328.194L-1.92363 325.966L-1.98906 325.836L-1.908 325.714C-0.586354 323.746 -0.317764 321.35 -0.300583 317.573L-0.299606 271.928C-0.299615 269.549 -0.55473 267.203 -0.8582 265.456C-1.00999 264.583 -1.17252 263.864 -1.32011 263.369C-1.39438 263.12 -1.46258 262.937 -1.51933 262.82C-1.53131 262.796 -1.54466 262.778 -1.55351 262.763L-1.71855 262.772V259.156L-1.59843 259.084L-1.54082 259.049L-1.53398 259.044L-1.52715 259.041C-1.40747 258.979 -1.15932 258.886 -0.85527 258.98C-0.550148 259.073 -0.246991 259.336 0.0207062 259.857C0.549636 260.886 1.00973 263.056 1.0334 267.545V267.546L1.03438 317.99Z" fill="#2B3235" stroke="#CAE5E9" stroke-width="0.5"/>
</g>
<path fill-rule="evenodd" clip-rule="evenodd" d="M4.06282 192.698C3.93992 189.644 3.27851 184.705 3.27851 184.705H1.97662C0.876389 184.705 -0.00858516 185.594 6.28452e-05 186.702L0.0563735 226.321C0.0649824 227.424 1.3783 228.442 2.48192 228.442L3.61801 228.441C3.6784 228.413 3.92009 228.054 4.07658 224.21L4.10841 205.092C4.10694 198.981 4.0988 194.338 4.0787 193.223L4.06282 192.698Z" fill="url(#paint6_linear_8538_9007)"/>
<path fill-rule="evenodd" clip-rule="evenodd" d="M4.06282 192.698C3.93992 189.644 3.27851 184.705 3.27851 184.705H1.97662C0.876389 184.705 -0.00858516 185.594 6.28452e-05 186.702L0.0563735 226.321C0.0649824 227.424 1.3783 228.442 2.48192 228.442L3.61801 228.441C3.6784 228.413 3.92009 228.054 4.07658 224.21L4.10841 205.092C4.10694 198.981 4.0988 194.338 4.0787 193.223L4.06282 192.698Z" fill="url(#paint7_linear_8538_9007)"/>
<mask id="mask3_8538_9007" style="mask-type:luminance" maskUnits="userSpaceOnUse" x="0" y="184" width="5" height="45">
<path fill-rule="evenodd" clip-rule="evenodd" d="M4.06282 192.698C3.93992 189.644 3.27851 184.705 3.27851 184.705H1.97662C0.876389 184.705 -0.00858516 185.594 6.28452e-05 186.702L0.0563735 226.321C0.0649824 227.424 1.3783 228.442 2.48192 228.442L3.61801 228.441C3.6784 228.413 3.92009 228.054 4.07658 224.21L4.10841 205.092C4.10694 198.981 4.0988 194.338 4.0787 193.223L4.06282 192.698Z" fill="white"/>
</mask>
<g mask="url(#mask3_8538_9007)">
<path d="M0.693909 218.97C0.693909 223.212 0.323282 225.626 -0.104919 227.046C-0.319572 227.759 -0.550142 228.224 -0.757263 228.546C-0.959595 228.861 -1.15112 229.05 -1.22699 229.143L-1.72992 229.759L-1.67035 228.966L-1.57074 227.647L-1.56683 227.592L-1.54047 227.544C-0.975834 226.528 -0.734866 225.341 -0.637146 223.92C-0.539088 222.495 -0.586194 220.87 -0.577576 218.969V196.911C-0.577578 194.518 -0.618462 192.122 -0.673279 190.257C-0.700693 189.325 -0.731316 188.526 -0.762146 187.927C-0.79356 187.317 -0.824201 186.939 -0.847107 186.828L-0.848083 186.822L-0.84906 186.82C-0.849391 186.818 -0.849355 186.815 -0.850037 186.811C-0.851399 186.804 -0.85422 186.793 -0.856873 186.779C-0.862271 186.75 -0.870127 186.709 -0.88031 186.659C-0.900747 186.558 -0.929985 186.42 -0.965271 186.272C-1.00073 186.123 -1.04176 185.967 -1.08539 185.829C-1.13042 185.686 -1.17292 185.578 -1.20844 185.518C-1.36638 185.249 -1.66314 184.911 -1.93402 184.63C-2.06703 184.492 -2.1895 184.372 -2.27875 184.287C-2.32333 184.244 -2.36031 184.21 -2.38519 184.187C-2.39749 184.175 -2.40714 184.166 -2.41351 184.161C-2.41663 184.158 -2.41881 184.155 -2.42035 184.154L-2.4223 184.153V184.152L-2.67719 183.92L-2.37738 183.75C-2.23435 183.669 -1.9571 183.595 -1.62445 183.687C-1.28507 183.781 -0.91637 184.038 -0.579529 184.575C0.0844368 185.632 0.669204 187.835 0.692932 192.328V192.33L0.693909 218.97Z" fill="#2B3235" stroke="#F2F1F2" stroke-width="0.5"/>
</g>
<path fill-rule="evenodd" clip-rule="evenodd" d="M3.0002 114.479C3.0002 74.4075 3.0002 54.3718 10.7986 39.0666C17.6583 25.6037 28.6039 14.6581 42.0668 7.79841C57.372 0 77.4077 0 117.479 0H321.521C361.593 0 381.628 0 396.934 7.79841C410.396 14.6581 421.342 25.6037 428.202 39.0666C436 54.3718 436 74.4075 436 114.479V777.521C436 817.592 436 837.628 428.202 852.933C421.342 866.396 410.396 877.342 396.934 884.202C381.628 892 361.593 892 321.521 892H117.479C77.4077 892 57.372 892 42.0668 884.202C28.6039 877.342 17.6583 866.396 10.7986 852.933C3.0002 837.628 3.0002 817.592 3.0002 777.521V114.479Z" fill="#445C61"/>
<mask id="mask4_8538_9007" style="mask-type:luminance" maskUnits="userSpaceOnUse" x="3" y="0" width="434" height="892">
<path fill-rule="evenodd" clip-rule="evenodd" d="M3.0002 114.479C3.0002 74.4075 3.0002 54.3718 10.7986 39.0666C17.6583 25.6037 28.6039 14.6581 42.0668 7.79841C57.372 0 77.4077 0 117.479 0H321.521C361.593 0 381.628 0 396.934 7.79841C410.396 14.6581 421.342 25.6037 428.202 39.0666C436 54.3718 436 74.4075 436 114.479V777.521C436 817.592 436 837.628 428.202 852.933C421.342 866.396 410.396 877.342 396.934 884.202C381.628 892 361.593 892 321.521 892H117.479C77.4077 892 57.372 892 42.0668 884.202C28.6039 877.342 17.6583 866.396 10.7986 852.933C3.0002 837.628 3.0002 817.592 3.0002 777.521V114.479Z" fill="white"/>
</mask>
<g mask="url(#mask4_8538_9007)">
<g filter="url(#filter0_f_8538_9007)">
<path fill-rule="evenodd" clip-rule="evenodd" d="M5.0002 116.479C5.0002 76.4075 5.0002 56.3718 12.7986 41.0666C19.6583 27.6037 30.6039 16.6581 44.0668 9.79841C59.372 2 79.4077 2 119.479 2H318.521C358.593 2 378.628 2 393.934 9.79841C407.396 16.6581 418.342 27.6037 425.202 41.0666C433 56.3718 433 76.4075 433 116.479V774.521C433 814.592 433 834.628 425.202 849.933C418.342 863.396 407.396 874.342 393.934 881.202C378.628 889 358.593 889 318.521 889H119.479C79.4077 889 59.372 889 44.0668 881.202C30.6039 874.342 19.6583 863.396 12.7986 849.933C5.0002 834.628 5.0002 814.592 5.0002 774.521V116.479Z" fill="#A4D4DA"/>
</g>
</g>
<defs>
<linearGradient id="paint0_linear_8538_9007" x1="439" y1="334" x2="435" y2="334" gradientUnits="userSpaceOnUse">
<stop stop-color="#E2E8F0"/>
<stop offset="1" stop-color="#CBD5E1"/>
</linearGradient>
<linearGradient id="paint1_linear_8538_9007" x1="437" y1="281" x2="437" y2="387" gradientUnits="userSpaceOnUse">
<stop stop-color="#E2E8F0"/>
<stop offset="1" stop-color="#CBD5E1"/>
</linearGradient>
<linearGradient id="paint2_linear_8538_9007" x1="4.1" y1="385" x2="0" y2="385" gradientUnits="userSpaceOnUse">
<stop stop-color="#94A3B8"/>
<stop offset="1" stop-color="#64748B"/>
</linearGradient>
<linearGradient id="paint3_linear_8538_9007" x1="2" y1="345" x2="2" y2="412" gradientUnits="userSpaceOnUse">
<stop stop-color="#94A3B8"/>
<stop offset="1" stop-color="#64748B"/>
</linearGradient>
<linearGradient id="paint4_linear_8538_9007" x1="4.1" y1="300" x2="0" y2="300" gradientUnits="userSpaceOnUse">
<stop stop-color="#94A3B8"/>
<stop offset="1" stop-color="#64748B"/>
</linearGradient>
<linearGradient id="paint5_linear_8538_9007" x1="2" y1="260" x2="2" y2="327" gradientUnits="userSpaceOnUse">
<stop stop-color="#94A3B8"/>
<stop offset="1" stop-color="#64748B"/>
</linearGradient>
<linearGradient id="paint6_linear_8538_9007" x1="4.1" y1="215" x2="0" y2="215" gradientUnits="userSpaceOnUse">
<stop stop-color="#94A3B8"/>
<stop offset="1" stop-color="#64748B"/>
</linearGradient>
<linearGradient id="paint7_linear_8538_9007" x1="2" y1="184.705" x2="2" y2="228.442" gradientUnits="userSpaceOnUse">
<stop stop-color="#94A3B8"/>
<stop offset="1" stop-color="#64748B"/>
</linearGradient>
<filter id="filter0_f_8538_9007" x="-3" y="-2" width="444" height="899" filterUnits="userSpaceOnUse" color-interpolation-filters="sRGB">
<feFlood flood-opacity="0" result="BackgroundImageFix"/>
<feBlend mode="normal" in="SourceGraphic" in2="BackgroundImageFix" result="shape"/>
<feGaussianBlur stdDeviation="2" result="effect1_foregroundBlur_8538_9007"/>
</filter>
</defs>
</svg>